<svg width="20" height="20" viewBox="0 0 20 20" fill="none" xmlns="http://www.w3.org/2000/svg">
<path d="M11.0574 3.05731C11.3075 2.80735 11.6465 2.66693 12.0001 2.66693C12.3536 2.66693 12.6927 2.80735 12.9427 3.05731L18.9427 9.05731C19.1927 9.30735 19.3331 9.64643 19.3331 9.99998C19.3331 10.3535 19.1927 10.6926 18.9427 10.9426L12.9427 16.9426C12.6913 17.1855 12.3545 17.3199 12.0049 17.3169C11.6553 17.3138 11.3209 17.1736 11.0737 16.9264C10.8264 16.6792 10.6862 16.3448 10.6832 15.9952C10.6801 15.6456 10.8145 15.3088 11.0574 15.0573L14.6667 11.3333H2.00008C1.64646 11.3333 1.30732 11.1928 1.05727 10.9428C0.807224 10.6927 0.666748 10.3536 0.666748 9.99998C0.666748 9.64636 0.807224 9.30722 1.05727 9.05717C1.30732 8.80712 1.64646 8.66665 2.00008 8.66665H14.6667L11.0574 4.94265C10.8075 4.69261 10.667 4.35353 10.667 3.99998C10.667 3.64643 10.8075 3.30735 11.0574 3.05731Z" fill="white"/>
</svg>
