<svg width="37" height="37" viewBox="0 0 37 37" fill="none" xmlns="http://www.w3.org/2000/svg">
<rect x="0.57959" y="0.642578" width="36.2672" height="36.2672" rx="5.57957" fill="#F2B311"/>
<path d="M22.0611 12.7085C22.0611 12.542 22.1272 12.3824 22.2449 12.2647C22.3626 12.1469 22.5223 12.0808 22.6888 12.0808H24.7811C24.9476 12.0808 25.1072 12.1469 25.2249 12.2647C25.3427 12.3824 25.4088 12.542 25.4088 12.7085V14.8008C25.4088 14.9673 25.3427 15.127 25.2249 15.2447C25.1072 15.3624 24.9476 15.4286 24.7811 15.4286C24.6146 15.4286 24.455 15.3624 24.3372 15.2447C24.2195 15.127 24.1534 14.9673 24.1534 14.8008V14.2234L20.4123 17.9645C20.2946 18.082 20.1351 18.148 19.9687 18.148C19.8024 18.148 19.6428 18.082 19.5251 17.9645L17.4579 15.8972L13.926 19.4291C13.8686 19.4908 13.7993 19.5402 13.7223 19.5745C13.6453 19.6089 13.5622 19.6273 13.4779 19.6288C13.3936 19.6303 13.3099 19.6148 13.2317 19.5832C13.1536 19.5516 13.0826 19.5046 13.023 19.445C12.9634 19.3854 12.9164 19.3144 12.8848 19.2363C12.8532 19.1581 12.8377 19.0744 12.8392 18.9901C12.8407 18.9058 12.8591 18.8227 12.8935 18.7457C12.9278 18.6687 12.9772 18.5994 13.0389 18.542L17.0143 14.5665C17.132 14.449 17.2916 14.3829 17.4579 14.3829C17.6243 14.3829 17.7838 14.449 17.9015 14.5665L19.9687 16.6337L23.2662 13.3362H22.6888C22.5223 13.3362 22.3626 13.2701 22.2449 13.1524C22.1272 13.0346 22.0611 12.875 22.0611 12.7085ZM13.4825 22.124C13.6489 22.124 13.8086 22.1902 13.9263 22.3079C14.044 22.4256 14.1102 22.5853 14.1102 22.7517V24.8441C14.1102 25.0105 14.044 25.1702 13.9263 25.2879C13.8086 25.4056 13.6489 25.4718 13.4825 25.4718C13.316 25.4718 13.1563 25.4056 13.0386 25.2879C12.9209 25.1702 12.8548 25.0105 12.8548 24.8441V22.7517C12.8548 22.5853 12.9209 22.4256 13.0386 22.3079C13.1563 22.1902 13.316 22.124 13.4825 22.124ZM17.4579 20.2409C17.4579 20.0745 17.3918 19.9148 17.2741 19.7971C17.1563 19.6794 16.9967 19.6132 16.8302 19.6132C16.6637 19.6132 16.5041 19.6794 16.3864 19.7971C16.2686 19.9148 16.2025 20.0745 16.2025 20.2409V24.8441C16.2025 25.0105 16.2686 25.1702 16.3864 25.2879C16.5041 25.4056 16.6637 25.4718 16.8302 25.4718C16.9967 25.4718 17.1563 25.4056 17.2741 25.2879C17.3918 25.1702 17.4579 25.0105 17.4579 24.8441V20.2409ZM20.178 21.2871C20.3444 21.2871 20.5041 21.3532 20.6218 21.4709C20.7395 21.5887 20.8057 21.7483 20.8057 21.9148V24.8441C20.8057 25.0105 20.7395 25.1702 20.6218 25.2879C20.5041 25.4056 20.3444 25.4718 20.178 25.4718C20.0115 25.4718 19.8518 25.4056 19.7341 25.2879C19.6164 25.1702 19.5503 25.0105 19.5503 24.8441V21.9148C19.5503 21.7483 19.6164 21.5887 19.7341 21.4709C19.8518 21.3532 20.0115 21.2871 20.178 21.2871ZM24.1534 18.5671C24.1534 18.4006 24.0873 18.2409 23.9695 18.1232C23.8518 18.0055 23.6922 17.9394 23.5257 17.9394C23.3592 17.9394 23.1996 18.0055 23.0818 18.1232C22.9641 18.2409 22.898 18.4006 22.898 18.5671V24.8441C22.898 25.0105 22.9641 25.1702 23.0818 25.2879C23.1996 25.4056 23.3592 25.4718 23.5257 25.4718C23.6922 25.4718 23.8518 25.4056 23.9695 25.2879C24.0873 25.1702 24.1534 25.0105 24.1534 24.8441V18.5671Z" fill="white"/>
</svg>
