<svg xmlns="http://www.w3.org/2000/svg" width="15" height="15" viewBox="0 0 15 15" fill="none">
  <g clip-path="url(#clip0_316_2156)">
    <path d="M8.14274 2.67143C8.3229 2.49132 8.56722 2.39014 8.82197 2.39014C9.07672 2.39014 9.32104 2.49132 9.50121 2.67143L13.8245 6.99471C14.0046 7.17488 14.1058 7.4192 14.1058 7.67395C14.1058 7.9287 14.0046 8.17302 13.8245 8.35319L9.50121 12.6765C9.32001 12.8515 9.07733 12.9483 8.82543 12.9461C8.57353 12.9439 8.33257 12.8429 8.15444 12.6648C7.97631 12.4866 7.87527 12.2457 7.87308 11.9938C7.87089 11.7419 7.96773 11.4992 8.14274 11.318L10.7434 8.63468H1.61649C1.36169 8.63468 1.11733 8.53346 0.937153 8.35329C0.756981 8.17312 0.655762 7.92875 0.655762 7.67395C0.655762 7.41915 0.756981 7.17478 0.937153 6.99461C1.11733 6.81444 1.36169 6.71322 1.61649 6.71322H10.7434L8.14274 4.0299C7.96263 3.84974 7.86145 3.60541 7.86145 3.35066C7.86145 3.09591 7.96263 2.85159 8.14274 2.67143Z" fill="#fff"/>
  </g>
  <defs>
    <clipPath id="clip0_316_2156">
      <rect width="14.411" height="14.411" fill="white" transform="translate(0.175293 0.468384)"/>
    </clipPath>
  </defs>
</svg>