<svg width="38" height="39" viewBox="0 0 38 39" fill="none" xmlns="http://www.w3.org/2000/svg">
<rect x="0.528809" y="0.843689" width="37.4685" height="37.4685" rx="5.76438" fill="#95C4F4" fill-opacity="0.27"/>
<path d="M19.9036 20.1224C19.7836 20.2417 19.6213 20.3086 19.4521 20.3086C19.2829 20.3086 19.1206 20.2417 19.0005 20.1224L17.0791 18.2009C16.8049 18.6087 16.6537 19.0867 16.6436 19.578C16.6436 20.0961 16.7972 20.6025 17.085 21.0333C17.3729 21.4641 17.782 21.7999 18.2607 21.9982C18.7393 22.1964 19.2661 22.2483 19.7742 22.1472C20.2824 22.0461 20.7491 21.7967 21.1155 21.4303C21.4818 21.0639 21.7313 20.5972 21.8324 20.089C21.9335 19.5809 21.8816 19.0542 21.6833 18.5755C21.4851 18.0968 21.1493 17.6877 20.7185 17.3999C20.2877 17.112 19.7813 16.9584 19.2631 16.9584C18.8126 16.9611 18.3708 17.0826 17.9822 17.3106L19.9036 19.2321C20.0191 19.3515 20.0836 19.5111 20.0836 19.6772C20.0836 19.8433 20.0191 20.003 19.9036 20.1224Z" fill="#0073EA"/>
<path d="M19.2631 9.33014C18.3428 9.33269 17.4272 9.45981 16.541 9.70803L17.5658 12.1995C19.1792 11.8225 20.8716 11.9819 22.3862 12.6536C23.9008 13.3254 25.155 14.4727 25.9586 15.9217C26.7621 17.3707 27.0712 19.0422 26.8389 20.6827C26.6067 22.3232 25.8457 23.8432 24.6715 25.0122C23.4972 26.1811 21.9738 26.9352 20.3322 27.1601C18.6907 27.3849 17.0206 27.0683 15.5753 26.2581C14.1299 25.448 12.9883 24.1886 12.3234 22.671C11.6585 21.1534 11.5067 19.4603 11.8911 17.8486L9.40599 16.811C8.82638 18.878 8.91051 21.0748 9.64652 23.0914C10.3825 25.108 11.7332 26.8426 13.508 28.0503C15.2828 29.2579 17.3921 29.8778 19.538 29.8223C21.684 29.7668 23.7584 29.0388 25.4684 27.741C27.1784 26.4432 28.4377 24.6412 29.0685 22.5893C29.6994 20.5373 29.6699 18.3391 28.9842 16.3048C28.2986 14.2706 26.9914 12.503 25.2472 11.2516C23.503 10.0001 21.4098 9.32803 19.2631 9.33014Z" fill="#0073EA"/>
<path d="M12.8583 18.2585C12.578 19.6285 12.746 21.0524 13.3375 22.3195C13.929 23.5866 14.9126 24.6297 16.1428 25.2946C17.373 25.9595 18.7845 26.2108 20.1686 26.0114C21.5527 25.8121 22.8359 25.1725 23.8284 24.1875C24.8209 23.2024 25.4701 21.924 25.6799 20.5415C25.8897 19.1589 25.649 17.7456 24.9934 16.5104C24.3378 15.2752 23.3021 14.2838 22.0394 13.6828C20.7768 13.0818 19.3543 12.9031 17.9822 13.173L19.0646 15.8054H19.2632C20.0077 15.8054 20.7356 16.0262 21.3548 16.4397C21.974 16.8532 22.4567 17.441 22.7419 18.1288C23.0272 18.8166 23.1021 19.5735 22.9573 20.3039C22.8125 21.0343 22.4545 21.7053 21.9284 22.2323C21.4024 22.7592 20.7319 23.1184 20.0018 23.2644C19.2717 23.4105 18.5147 23.3368 17.8264 23.0527C17.1381 22.7687 16.5495 22.287 16.1349 21.6685C15.7203 21.05 15.4984 20.3225 15.4971 19.5779V19.3537L12.8583 18.2585Z" fill="#0073EA"/>
<path d="M12.9864 16.5933C13.0455 16.6536 13.1261 16.6881 13.2105 16.6893H15.5483L17.0535 18.1945C17.285 17.8275 17.6042 17.5238 17.9822 17.3106L16.4002 15.735V13.4997C16.399 13.4152 16.3644 13.3347 16.3041 13.2755L12.7238 9.69521C12.679 9.65133 12.6223 9.62154 12.5608 9.60955C12.4993 9.59756 12.4356 9.60389 12.3776 9.62776C12.3197 9.65163 12.27 9.69198 12.2347 9.74382C12.1995 9.79566 12.1802 9.8567 12.1794 9.91938V12.4813H9.65583C9.59315 12.4822 9.53211 12.5015 9.48027 12.5367C9.42843 12.572 9.38808 12.6216 9.36421 12.6796C9.34034 12.7376 9.33401 12.8013 9.346 12.8628C9.35799 12.9243 9.38778 12.981 9.43166 13.0257L12.9864 16.5933Z" fill="#0073EA"/>
</svg>
