<svg width="16" height="16" viewBox="0 0 16 16" fill="none" xmlns="http://www.w3.org/2000/svg">
<path d="M7.57066 1.18286C6.30727 1.18286 5.07226 1.5575 4.02179 2.2594C2.97132 2.9613 2.15258 3.95893 1.66911 5.12615C1.18563 6.29337 1.05913 7.57774 1.3056 8.81685C1.55208 10.056 2.16046 11.1942 3.05381 12.0875C3.94715 12.9809 5.08535 13.5892 6.32446 13.8357C7.56357 14.0822 8.84794 13.9557 10.0152 13.4722C11.1824 12.9887 12.18 12.17 12.8819 11.1195C13.5838 10.0691 13.9584 8.83404 13.9584 7.57065C13.9566 5.87708 13.283 4.25341 12.0854 3.05588C10.8879 1.85834 9.26423 1.18474 7.57066 1.18286ZM7.57066 12.5389C6.58802 12.5389 5.62746 12.2476 4.81043 11.7016C3.9934 11.1557 3.3566 10.3798 2.98056 9.47193C2.60452 8.5641 2.50614 7.56514 2.69784 6.60139C2.88954 5.63764 3.36272 4.75237 4.05755 4.05755C4.75238 3.36272 5.63764 2.88954 6.60139 2.69783C7.56515 2.50613 8.5641 2.60452 9.47194 2.98056C10.3798 3.3566 11.1557 3.99339 11.7016 4.81042C12.2476 5.62745 12.5389 6.58802 12.5389 7.57065C12.5375 8.88789 12.0136 10.1508 11.0822 11.0822C10.1508 12.0136 8.88789 12.5375 7.57066 12.5389ZM10.0305 9.41661C9.64311 9.93281 9.1031 10.314 8.48698 10.5063C7.87087 10.6986 7.20988 10.6922 6.59761 10.488C5.98535 10.2837 5.45285 9.8921 5.07551 9.36847C4.69817 8.84484 4.49513 8.21578 4.49513 7.57036C4.49513 6.92494 4.69817 6.29587 5.07551 5.77225C5.45285 5.24862 5.98535 4.85697 6.59761 4.65276C7.20988 4.44855 7.87087 4.44213 8.48698 4.6344C9.1031 4.82668 9.64311 5.20791 10.0305 5.72411C10.0886 5.79843 10.1312 5.88358 10.156 5.97456C10.1807 6.06555 10.1871 6.16056 10.1747 6.25404C10.1623 6.34752 10.1315 6.43759 10.0839 6.519C10.0363 6.60042 9.97299 6.67153 9.89762 6.7282C9.82225 6.78486 9.73635 6.82594 9.64492 6.84903C9.5535 6.87212 9.45839 6.87677 9.36515 6.86269C9.27192 6.84861 9.18242 6.8161 9.10189 6.76705C9.02136 6.71799 8.95141 6.65339 8.89612 6.577C8.68757 6.29893 8.39682 6.09353 8.06504 5.98989C7.73327 5.88625 7.37729 5.88963 7.04754 5.99954C6.7178 6.10946 6.43099 6.32034 6.22775 6.60232C6.02452 6.88429 5.91515 7.22307 5.91515 7.57065C5.91515 7.91824 6.02452 8.25701 6.22775 8.53899C6.43099 8.82096 6.7178 9.03185 7.04754 9.14176C7.37729 9.25168 7.73327 9.25506 8.06504 9.15142C8.39682 9.04778 8.68757 8.84238 8.89612 8.56431C8.95093 8.4868 9.02073 8.42107 9.10139 8.37102C9.18205 8.32096 9.27193 8.2876 9.36572 8.27289C9.4595 8.25819 9.55528 8.26245 9.64739 8.28543C9.7395 8.3084 9.82607 8.34962 9.90196 8.40664C9.97786 8.46366 10.0415 8.53533 10.0893 8.6174C10.137 8.69947 10.1677 8.79028 10.1797 8.88445C10.1917 8.97862 10.1847 9.07423 10.1591 9.16564C10.1334 9.25705 10.0897 9.34239 10.0305 9.41661Z" fill="white"/>
</svg>
