<svg width="29" height="30" viewBox="0 0 29 30" fill="none" xmlns="http://www.w3.org/2000/svg">
<g clip-path="url(#clip0_316_2088)">
<path d="M10.3384 9.34316C10.3385 8.98961 10.479 8.65055 10.729 8.40055C10.979 8.15055 11.318 8.01008 11.6716 8.01003L20.1569 8.01003C20.5104 8.01008 20.8495 8.15055 21.0995 8.40055C21.3495 8.65055 21.4899 8.98961 21.49 9.34316L21.49 17.8284C21.4839 18.178 21.3408 18.5112 21.0914 18.7562C20.8421 19.0013 20.5065 19.1386 20.1569 19.1386C19.8072 19.1386 19.4716 19.0013 19.2223 18.7562C18.9729 18.5112 18.8298 18.178 18.8237 17.8284L18.7426 12.643L9.78595 21.5997C9.53591 21.8497 9.19677 21.9902 8.84315 21.9902C8.48952 21.9902 8.15038 21.8497 7.90034 21.5997C7.65029 21.3496 7.50981 21.0105 7.50981 20.6569C7.50981 20.3032 7.65029 19.9641 7.90034 19.7141L16.857 10.7574L11.6716 10.6763C11.318 10.6762 10.979 10.5358 10.729 10.2858C10.479 10.0358 10.3385 9.69671 10.3384 9.34316Z" fill="#f25211"/>
</g>
<defs>
<clipPath id="clip0_316_2088">
<rect width="20" height="20" fill="#f25211" transform="translate(0.35791 15) rotate(-45)"/>
</clipPath>
</defs>
</svg>
