<svg width="37" height="38" viewBox="0 0 37 38" fill="none" xmlns="http://www.w3.org/2000/svg">
<rect x="0.57959" y="0.886108" width="36.2672" height="36.2672" rx="5.57957" fill="#0073EA"/>
<path d="M24.2927 16.2298H22.2003V14.9814C22.2003 13.1611 20.8682 11.536 19.0549 11.3617C18.5704 11.3148 18.0814 11.3698 17.6194 11.523C17.1574 11.6761 16.7325 11.9242 16.372 12.2512C16.0115 12.5783 15.7233 12.977 15.5259 13.422C15.3285 13.8669 15.2263 14.3482 15.2259 14.835V16.2298H13.1335V25.9941H24.2927V16.2298ZM18.7131 22.5069C17.9459 22.5069 17.3182 21.8792 17.3182 21.112C17.3182 20.3448 17.9459 19.7171 18.7131 19.7171C19.4803 19.7171 20.108 20.3448 20.108 21.112C20.108 21.8792 19.4803 22.5069 18.7131 22.5069ZM16.6208 16.2298V14.835C16.6208 13.6772 17.5554 12.7426 18.7131 12.7426C19.8709 12.7426 20.8055 13.6772 20.8055 14.835V16.2298H16.6208Z" fill="white"/>
</svg>
