<svg width="37" height="37" viewBox="0 0 37 37" fill="none" xmlns="http://www.w3.org/2000/svg">
<rect x="0.57959" y="0.00769043" width="36.2672" height="36.2672" rx="5.57957" fill="#F25211"/>
<path fill-rule="evenodd" clip-rule="evenodd" d="M18.7267 11.8643C17.1516 11.8643 15.7166 12.3846 14.8674 12.8096C14.7907 12.848 14.7192 12.8857 14.6526 12.9219C14.5208 12.9938 14.4085 13.0607 14.3192 13.1197L15.2852 14.5418L15.7399 14.7227C17.517 15.6193 19.9002 15.6193 21.6776 14.7227L22.1938 14.4549L23.1071 13.1197C22.9179 12.9962 22.7212 12.8848 22.5181 12.7859C21.6731 12.3654 20.2723 11.8643 18.7271 11.8643H18.7267ZM16.4803 13.474C16.1382 13.41 15.8004 13.3252 15.4686 13.2201C16.2641 12.8668 17.4494 12.492 18.7267 12.492C19.6115 12.492 20.448 12.6719 21.1399 12.9C20.3291 13.014 19.4639 13.2075 18.6396 13.4457C17.9909 13.6333 17.2328 13.6131 16.4803 13.474ZM22.0459 15.2399L21.9601 15.2831C20.0052 16.2693 17.4121 16.2693 15.4571 15.2831L15.3759 15.242C12.4389 18.4645 10.1966 24.4172 18.7267 24.4172C27.2569 24.4172 24.9598 18.3533 22.0459 15.2399ZM18.3644 18.1413C18.1795 18.1413 18.0021 18.2148 17.8713 18.3455C17.7405 18.4763 17.667 18.6537 17.667 18.8387C17.667 19.0237 17.7405 19.2011 17.8713 19.3319C18.0021 19.4627 18.1795 19.5362 18.3644 19.5362V18.1413ZM19.0619 17.4438V17.0951H18.3644V17.4438C17.9945 17.4438 17.6397 17.5908 17.3781 17.8524C17.1165 18.114 16.9695 18.4688 16.9695 18.8387C16.9695 19.2087 17.1165 19.5635 17.3781 19.8251C17.6397 20.0866 17.9945 20.2336 18.3644 20.2336V21.6285C18.061 21.6285 17.8026 21.435 17.7064 21.1637C17.6921 21.1193 17.6691 21.0782 17.6386 21.0429C17.6082 21.0075 17.571 20.9787 17.5292 20.958C17.4874 20.9373 17.4419 20.9252 17.3954 20.9224C17.3488 20.9196 17.3022 20.9261 17.2582 20.9416C17.2143 20.9572 17.1739 20.9814 17.1394 21.0128C17.105 21.0442 17.0772 21.0822 17.0577 21.1246C17.0382 21.1669 17.0274 21.2128 17.0259 21.2594C17.0244 21.306 17.0323 21.3524 17.049 21.3959C17.1452 21.6679 17.3234 21.9034 17.5589 22.0699C17.7945 22.2365 18.0759 22.3259 18.3644 22.3259V22.6747H19.0619V22.3259C19.4318 22.3259 19.7866 22.179 20.0482 21.9174C20.3098 21.6558 20.4568 21.301 20.4568 20.9311C20.4568 20.5611 20.3098 20.2063 20.0482 19.9447C19.7866 19.6831 19.4318 19.5362 19.0619 19.5362V18.1413C19.3653 18.1413 19.6237 18.3348 19.7199 18.6061C19.7342 18.6505 19.7572 18.6916 19.7877 18.7269C19.8181 18.7622 19.8553 18.7911 19.8971 18.8118C19.9389 18.8325 19.9844 18.8446 20.0309 18.8474C20.0775 18.8502 20.1241 18.8437 20.168 18.8281C20.212 18.8126 20.2524 18.7884 20.2869 18.757C20.3213 18.7256 20.3491 18.6875 20.3686 18.6452C20.3881 18.6028 20.3989 18.557 20.4004 18.5104C20.4019 18.4638 20.394 18.4174 20.3773 18.3739C20.2811 18.1019 20.1029 17.8664 19.8673 17.6998C19.6318 17.5333 19.3504 17.4438 19.0619 17.4438ZM19.0619 20.2336V21.6285C19.2468 21.6285 19.4242 21.555 19.555 21.4242C19.6858 21.2934 19.7593 21.116 19.7593 20.9311C19.7593 20.7461 19.6858 20.5687 19.555 20.4379C19.4242 20.3071 19.2468 20.2336 19.0619 20.2336Z" fill="white"/>
</svg>
