<svg width="38" height="39" viewBox="0 0 38 39" fill="none" xmlns="http://www.w3.org/2000/svg">
<rect x="0.528809" y="0.843872" width="37.4685" height="37.4685" rx="5.76438" fill="#F25211" fill-opacity="0.17"/>
<path d="M29.2444 9.77241C29.2362 9.73258 29.2168 9.69592 29.1885 9.66673C29.1602 9.63754 29.1241 9.61702 29.0846 9.60759C26.4469 8.9627 20.3524 11.2608 17.0505 14.5614C16.4616 15.1455 15.9247 15.7799 15.446 16.4573C14.4277 16.3672 13.4095 16.4424 12.5417 16.8207C10.0932 17.8984 9.38029 20.7103 9.18169 21.92C9.17042 21.9862 9.17467 22.0541 9.1941 22.1184C9.21353 22.1827 9.24761 22.2416 9.29366 22.2904C9.33971 22.3393 9.39647 22.3769 9.45948 22.4001C9.52249 22.4233 9.59004 22.4316 9.6568 22.4243L13.5887 21.9907C13.5915 22.2871 13.6094 22.5832 13.6423 22.8778C13.6621 23.0824 13.7529 23.2736 13.899 23.4182L15.4216 24.9372C15.5664 25.0831 15.7575 25.1739 15.962 25.1939C16.255 25.2267 16.5495 25.2446 16.8443 25.2475L16.4128 29.1745C16.4056 29.2413 16.414 29.3088 16.4373 29.3717C16.4605 29.4347 16.4981 29.4914 16.5469 29.5374C16.5958 29.5835 16.6547 29.6176 16.7189 29.637C16.7831 29.6565 16.851 29.6608 16.9172 29.6496C18.1246 29.456 20.9415 28.7431 22.0128 26.2946C22.3911 25.4268 22.4686 24.4135 22.3812 23.4002C23.0603 22.9214 23.6963 22.3844 24.2821 21.7952C27.5944 18.4996 29.8794 12.5411 29.2444 9.77241ZM20.9775 17.8637C20.6751 17.5615 20.469 17.1763 20.3855 16.7569C20.302 16.3376 20.3447 15.9029 20.5083 15.5078C20.6719 15.1127 20.9489 14.775 21.3044 14.5375C21.6599 14.2999 22.0779 14.1731 22.5055 14.1731C22.9331 14.1731 23.3511 14.2999 23.7066 14.5375C24.0621 14.775 24.3392 15.1127 24.5028 15.5078C24.6663 15.9029 24.709 16.3376 24.6255 16.7569C24.542 17.1763 24.336 17.5615 24.0335 17.8637C23.833 18.0646 23.5948 18.2239 23.3326 18.3326C23.0704 18.4413 22.7894 18.4973 22.5055 18.4973C22.2217 18.4973 21.9406 18.4413 21.6784 18.3326C21.4163 18.2239 21.1781 18.0646 20.9775 17.8637Z" fill="#F25211"/>
<path d="M15.3181 26.0373C15.0713 26.2845 14.6755 26.3809 14.199 26.4633C13.1286 26.6457 12.1833 25.7207 12.3756 24.6385C12.449 24.2283 12.6661 23.6532 12.8012 23.5181C12.8307 23.4891 12.8503 23.4516 12.8573 23.4108C12.8643 23.3701 12.8583 23.3281 12.8401 23.291C12.8219 23.2539 12.7925 23.2234 12.756 23.2039C12.7195 23.1845 12.6778 23.177 12.6368 23.1826C12.0382 23.2558 11.4813 23.5272 11.0547 23.9536C9.99597 25.0132 9.896 28.9452 9.896 28.9452C9.896 28.9452 13.8302 28.8452 14.8889 27.7855C15.3166 27.3594 15.5884 26.8016 15.6604 26.2021C15.677 26.0139 15.4478 25.9018 15.3181 26.0373Z" fill="#F25211"/>
</svg>
