<svg width="38" height="38" viewBox="0 0 38 38" fill="none" xmlns="http://www.w3.org/2000/svg">
<rect x="0.528809" y="0.271118" width="37.4685" height="37.4685" rx="5.76438" fill="#BED6D6"/>
<path d="M26.9489 9.39807H11.5772C10.5108 9.39807 9.65576 10.2531 9.65576 11.3195V26.6912C9.65576 27.7576 10.5108 28.6127 11.5772 28.6127H26.9489C28.0153 28.6127 28.8704 27.7576 28.8704 26.6912V11.3195C28.8704 10.2531 28.0153 9.39807 26.9489 9.39807ZM16.3809 25.7305H12.538V21.8876L13.7773 23.1269L15.2568 21.6474L16.6211 23.0116L15.1415 24.4911M15.2568 16.3634L13.7773 14.8838L12.538 16.1232V12.2803H16.3809L15.1415 13.5196L16.6211 14.9991M25.9882 25.7305H22.1453L23.3846 24.4911L21.9051 23.0116L23.2693 21.6474L24.7488 23.1269L25.9882 21.8876M25.9882 16.1232L24.7488 14.8838L23.2693 16.3634L21.9051 14.9991L23.3846 13.5196L22.1453 12.2803H25.9882" fill="#008080"/>
</svg>
